<svg data-v-0dd9719b="" version="1.0" xmlns="http://www.w3.org/2000/svg" xmlns:xlink="http://www.w3.org/1999/xlink" width="100%" height="100%" viewBox="0 0 340.000000 250.000000" preserveAspectRatio="xMidYMid meet" color-interpolation-filters="sRGB" style="margin: auto;"><rect data-v-0dd9719b="" x="0" y="0" width="100%" height="100%" fill="#ffffff" fill-opacity="1" class="background"></rect><g data-v-0dd9719b="" fill="#FF5B5C" class="bordersvg b-d1" transform="translate(99.0999984741211,43.90302276611328)"><polyline stroke="#FF5B5C" stroke-width="3" fill-opacity="0" fill="#ffffff" points="70.9000015258789,20 70.9000015258789,0 141.8000030517578,0 141.8000030517578,162.1939468383789 70.9000015258789,162.1939468383789 70.9000015258789,142.1939468383789"></polyline><g transform="translate(0,20)"><g><rect data-gra="graph-name-bg" stroke-width="2" class="i-icon-bg" x="0" y="0" width="141.8000030517578" height="122.1939468383789" fill-opacity="0"></rect></g><g transform="translate(10,3)"><g data-gra="path-name" fill-rule="" class="tp-name"><g transform="scale(1)"><g><path d="M36.8 1.3C55.5 1.3 67.5-9.5 67.5-27.2L67.5-70 51-70 51-27.2C51-18.5 44.8-12.9 36.8-12.9 28.9-12.9 22.5-18.5 22.5-27.2L22.5-70 6-70 6-27.2C6-9.5 18 1.3 36.8 1.3ZM75.2-56.5L93.2-56.5 93.2 0 109.8 0 109.8-56.5 127.8-56.5 127.8-70 75.2-70Z" transform="translate(-6, 70)"></path></g><g data-gra="path-name-1" fill="#000000" transform="translate(0,74.30001068115234)"><g transform="scale(0.97292)"><path d="M13.9 0L30.27 0 43.56-43.06 32.54-43.06 22.21-6.83 21.96-6.83 11.63-43.06 0.62-43.06ZM47.86-43.06L47.86 0 58.01 0 58.01-15.2 68.47-15.2C77.52-15.2 83.05-20.24 83.05-29.1 83.05-38.02 77.52-43.06 68.47-43.06ZM58.01-23.32L58.01-34.94 67.55-34.94C71.67-34.94 73.95-32.48 73.95-29.1 73.95-25.84 71.67-23.32 67.55-23.32ZM109.26 0L125.81 0 125.81-43.06 115.84-43.06 115.84-9.04 115.04-9.04 104.77-43.06 88.59-43.06 88.59 0 98.56 0 98.56-33.47 98.92-33.47Z" transform="translate(-0.6200000047683716, 43.060001373291016)"></path></g></g></g></g></g></g></g><defs v-gra="od"></defs></svg>